# AST/ASF file generated using VICON BodyLanguage
# -----------------------------------------------
:version 1.10
:name VICON
:units
  mass 1.0
  length 0.1
  angle deg
:documentation
   .ast/.asf automatically generated from VICON data using
   VICON BodyBuilder and BodyLanguage model FULLBODY5.MOD
:root
   order TX TY TZ RZ RY RX
   axis XYZ
   position 0 0 0  
   orientation 0 -0 0 
:bonedata
  begin
     id 1 
     name lhipjoint
     direction 0.961525 -0.229516 0.150972 
     length 0.502153 
     axis 0 -0 0  XYZ
  end
  begin
     id 2 
     name lfemur
     direction 0.173648 -0.984808 0  
     length 1.83052  
     axis 0 -0 10  XYZ
    dof rx ry rz
    limits (-180.0 180.0)
           (-180.0 180.0)
           (-180.0 180.0)
  end
  begin
     id 3 
     name ltibia
     direction 0.173629 -0.984811 0   
     length 1.50296   
     axis 0 -0 10   XYZ
    dof rx ry rz
    limits (-180.0 180.0)
           (-180.0 180.0)
           (-180.0 180.0)
  end
  begin
     id 4 
     name lfoot
     direction 7.59329e-012 -0.227408 0.9738   
     length 0.574743   
     axis -90 -1.73656e-015 10   XYZ
    dof rx ry rz
    limits (-180.0 180.0)
           (-180.0 180.0)
           (-180.0 180.0)
  end
  begin
     id 5 
     name ltoes
     direction 7.79885e-012 -4.41741e-011 1   
     length 0.28489   
     axis -90 -1.73656e-015 10   XYZ
    dof rx ry rz
    limits (-180.0 180.0)
           (-180.0 180.0)
           (-180.0 180.0)
  end
  begin
     id 6 
     name rhipjoint
     direction -0.970498 -0.201437 0.132502   
     length 0.572149  
     axis 0 -0 0  XYZ 
  end
  begin
     id 7 
     name rfemur
     direction -0.173648 -0.984808 0   
     length 1.71866   
     axis 0 -0 -10   XYZ
    dof rx ry rz
    limits (-180.0 180.0)
           (-180.0 180.0)
           (-180.0 180.0)
  end
  begin
     id 8 
     name rtibia
     direction -0.173624 -0.984812 0   
     length 1.42623   
     axis 0 -0 -10   XYZ
    dof rx ry rz
    limits (-180.0 180.0)
           (-180.0 180.0)
           (-180.0 180.0)
 end
 begin
     id 9 
     name rfoot
     direction -7.12931e-012 -0.404275 0.914637   
     length 0.524692  
     axis -90 1.73656e-015 -10   XYZ
    dof rx ry rz
    limits (-180.0 180.0)
           (-180.0 180.0)
           (-180.0 180.0)
  end
  begin
     id 10 
     name rtoes
     direction -7.79289e-012 -4.41454e-011 1   
     length 0.254983   
     axis -90 1.73656e-015 -10   XYZ
    dof rx ry rz
    limits (-180.0 180.0)
           (-180.0 180.0)
           (-180.0 180.0)
  end
  begin
     id 11 
     name lowerback
     direction -0.0214086 0.993738 0.109665   
     length 0.417614   
     axis 0 -0 0   XYZ
    dof rx ry rz
    limits (-180.0 180.0)
           (-180.0 180.0)
           (-180.0 180.0)
  end
  begin
     id 12 
     name upperback
     direction 8.15962e-005 0.99996 0.00893412   
     length 0.419234   
     axis 0 -0 0   XYZ
    dof rx ry rz
    limits (-180.0 180.0)
           (-180.0 180.0)
           (-180.0 180.0)
  end
  begin
     id 13 
     name thorax
     direction 0.00826031 0.999067 -0.0423848   
     length 0.424697   
     axis 0 -0 0   XYZ
    dof rx ry rz
    limits (-180.0 180.0)
           (-180.0 180.0)
           (-180.0 180.0)
  end
  begin
     id 14 
     name lowerneck
     direction -0.0196262 0.994272 -0.105058   
     length 0.355877   
     axis 0 -0 0   XYZ
    dof rx ry rz
    limits (-180.0 180.0)
           (-180.0 180.0)
           (-180.0 180.0)
  end
  begin
     id 15 
     name upperneck
     direction 0.000117372 0.999091 0.0426261   
     length 0.351054   
     axis 0 -0 0   XYZ
    dof rx ry rz
    limits (-180.0 180.0)
           (-180.0 180.0)
           (-180.0 180.0)
  end
  begin
     id 16
     name head
     direction 0.00157618 0.999651 0.0263619  
     length 0.374844  
     axis 0 -0 0   XYZ
    dof rx ry rz
    limits (-180.0 180.0)
           (-180.0 180.0)
           (-180.0 180.0)
  end
  begin
     id 17 
     name lshoulderjoint
     direction 0.981627 -0.190809 0  
     length 0.701763  
     axis 0 -0 -11   XYZ
    dof rx ry rz
    limits (-180.0 180.0)
           (-180.0 180.0)
           (-180.0 180.0)
  end
  begin
     id 18 
     name lhumerus
     direction 0.48481 -0.87462 -1.80676e-026   
     length 0.994704   
     axis -180 5.14477e-009 -151   XYZ
    dof rx ry rz
    limits (-180.0 180.0)
           (-180.0 180.0)
           (-180.0 180.0)
  end
  begin
     id 19
     name lradius
     direction 0.48481 -0.87462 -3.2569e-026   
     length 0.617638   
     axis -180 5.14477e-009 -151   XYZ
    dof rx ry rz
    limits (-180.0 180.0)
           (-180.0 180.0)
           (-180.0 180.0)
  end
  begin
     id 20
     name lwrist
     direction 0.48481 -0.87462 -6.73202e-026   
     length 0.308819   
     axis -180 5.14477e-009 -151   XYZ
    dof rx ry rz
    limits (-180.0 180.0)
           (-180.0 180.0)
           (-180.0 180.0)
  end
  begin
     id 21 
     name lhand
     direction 0.478366 -0.863761 -0.158376   
     length 0.291656   
     axis -180 5.14477e-009 -151   XYZ
    dof rx ry rz
    limits (-180.0 180.0)
           (-180.0 180.0)
           (-180.0 180.0)
  end
  begin
     id 22 
     name rshoulderjoint
     direction -0.981627 -0.190809 0   
     length 0.66654  
     axis 0 -0 11   XYZ 
    dof rx ry rz
    limits (-180.0 180.0)
           (-180.0 180.0)
           (-180.0 180.0)
  end
  begin
     id 23 
     name rhumerus
     direction -0.48481 -0.87462 1.77576e-026  
     length 1.15089   
     axis 180 5.14477e-009 151   XYZ
    dof rx ry rz
    limits (-180.0 180.0)
           (-180.0 180.0)
           (-180.0 180.0)
  end
  begin
     id 24 
     name rradius
     direction -0.48481 -0.87462 3.79421e-026   
     length 0.613887   
     axis 180 5.14477e-009 151   XYZ
    dof rx ry rz
    limits (-180.0 180.0)
           (-180.0 180.0)
           (-180.0 180.0)
  end
  begin
     id 25 
     name rwrist
     direction -0.48481 -0.87462 5.43623e-026   
     length 0.306944   
     axis 180 5.14477e-009 151   XYZ
    dof rx ry rz
    limits (-180.0 180.0)
           (-180.0 180.0)
           (-180.0 180.0)
  end
  begin
     id 26
     name rhand
     direction -0.479273 -0.864638 -0.150661   
     length 0.306429   
     axis 180 5.14477e-009 151   XYZ
    dof rx ry rz
    limits (-180.0 180.0)
           (-180.0 180.0)
           (-180.0 180.0)
  end
:hierarchy
  begin
    root lhipjoint rhipjoint lowerback 
    lhipjoint lfemur
    lfemur ltibia
    ltibia lfoot
    lfoot ltoes
    rhipjoint rfemur
    rfemur rtibia
    rtibia rfoot
    rfoot rtoes
    lowerback upperback
    upperback thorax
    thorax lowerneck lshoulderjoint rshoulderjoint
    lowerneck upperneck
    upperneck head
    lshoulderjoint lhumerus
    lhumerus lradius
    lradius lwrist
    lwrist lhand
    rshoulderjoint rhumerus
    rhumerus rradius
    rradius rwrist
    rwrist rhand
  end

:FULLY-SPECIFIED
:DEGREES
1453
root -6.61901 3.45994 -0.401687 -87.328 75.3856 90.1957
lowerback -15.0216 -4.33812 -1.90769
upperback -2.54636 -5.40778 1.25782
thorax 5.98955 -2.64997 1.3226
lowerneck 10.1987 2.8905 -1.44677
upperneck -6.35159 3.61355 -0.624619
head -3.92114 1.85454 -0.189187
rshoulderjoint 1.76009 -4.6047 -31.9454
rhumerus -15.0083 -39.1432 -50.4196
rradius 21.6677 4.45278e-014 2.34566e-014
rwrist 4.14634e-013 11.0749 -7.94023e-014
rhand 18.6763 -10.1705 23.0302
lshoulderjoint 2.63732 10.0951 25.7238
lhumerus 11.6672 9.54833 52.2801
lradius 30.3735 -9.38264e-014 9.93923e-014
lwrist 8.87493e-013 -11.9401 4.46997e-013
lhand 22.5384 11.2354 -20.6714
rfemur -38.3719 4.81976 11.0614
rtibia 11.9983 9.54166e-015 7.95139e-015
rfoot 0.752873 16.5076 -8.3947
rtoes 2.11507e-013 -2.78299e-015 -9.62118e-014
lfemur 4.27434 -8.43046 -19.9305
ltibia 20.181 -2.22639e-014 9.54166e-015
lfoot -21.7939 1.45422 7.85835
ltoes -1.27222e-014 -2.14687e-014 -6.65929e-015
1454
root -6.5601 3.46204 -0.398763 -87.9109 75.1585 90.6472
lowerback -15.644 -4.43431 -1.54722
upperback -2.72093 -5.57342 1.33382
thorax 6.12383 -2.71569 1.13138
lowerneck 10.1564 3.01423 -1.50811
upperneck -6.0769 3.75508 -0.8426
head -3.81208 1.93562 -0.25572
rshoulderjoint 1.75494 -4.57006 -32.0336
rhumerus -15.2851 -40.6898 -50.0819
rradius 21.5473 -1.04958e-013 -3.53837e-014
rwrist -4.35921e-013 10.9508 9.2327e-014
rhand 19.1827 -10.0585 22.2653
lshoulderjoint 2.66364 10.3362 25.536
lhumerus 10.9829 9.70821 52.1467
lradius 30.2488 7.95139e-015 1.90833e-014
lwrist -3.50885e-013 -11.7761 -4.38606e-014
lhand 22.5893 11.1904 -20.3651
rfemur -38.4634 4.41291 11.4499
rtibia 13.2304 -2.78299e-015 3.18055e-015
rfoot 2.75799 16.3102 -7.17098
rtoes -7.55382e-014 2.24627e-014 -1.90833e-014
lfemur 3.74566 -8.88898 -19.8037
ltibia 22.2934 -3.18055e-015 -1.11319e-014
lfoot -21.1946 2.93099 7.68961
ltoes 3.49861e-014 4.12478e-014 -2.36554e-014
1455
root -6.50225 3.46575 -0.396351 -88.5577 74.9913 91.1514
lowerback -16.0686 -4.51268 -1.18673
upperback -2.89619 -5.72429 1.42739
thorax 6.14815 -2.77555 0.974666
lowerneck 9.97145 3.10558 -1.53256
upperneck -5.7183 3.85949 -1.11799
head -3.64326 1.99917 -0.340502
rshoulderjoint 1.78776 -4.62979 -32.1409
rhumerus -15.5065 -42.3209 -49.7479
rradius 21.495 3.4668e-013 -8.26944e-014
rwrist -5.22556e-013 10.7057 -3.13979e-013
rhand 19.7466 -9.45238 21.4834
lshoulderjoint 2.7144 10.6448 25.395
lhumerus 10.3477 9.98366 52.2622
lradius 30.0164 -1.03368e-013 4.45278e-014
lwrist -1.15908e-012 -11.5876 -4.87009e-014
lhand 22.7134 10.9849 -19.9726
rfemur -38.3946 3.97635 11.8453
rtibia 14.3648 -4.77083e-015 -1.59028e-015
rfoot 4.3297 16 -6.30362
rtoes -3.00562e-013 1.14003e-013 4.21423e-014
lfemur 2.9665 -9.19982 -19.651
ltibia 24.8306 7.15625e-015 -2.62396e-014
lfoot -20.3152 4.44349 7.45908
ltoes 1.08139e-013 1.06946e-013 -1.45113e-014
1456
root -6.44608 3.47065 -0.394416 -89.3253 74.9469 91.7291
lowerback -16.2496 -4.58375 -0.826575
upperback -3.05108 -5.87645 1.57615
thorax 6.06594 -2.83931 0.892334
lowerneck 9.74977 3.20178 -1.63273
upperneck -5.37136 3.96485 -1.3834
head -3.47435 2.06374 -0.407052
rshoulderjoint 1.80665 -4.61981 -32.3863
rhumerus -15.5647 -43.096 -49.6686
rradius 21.5085 -2.03555e-013 2.14687e-014
rwrist -8.81356e-014 10.4631 1.98912e-013
rhand 19.8753 -9.3128 21.0547
lshoulderjoint 2.73032 10.8808 25.1783
lhumerus 9.69605 10.4238 52.3801
lradius 29.7114 1.57437e-013 -8.98507e-014
lwrist -2.14006e-013 -11.2191 -3.53434e-013
lhand 22.8829 10.6303 -19.4961
rfemur -38.1244 3.50624 12.2936
rtibia 15.4204 0 -1.59028e-015
rfoot 5.43004 15.6115 -5.64512
rtoes 6.44062e-014 -7.82839e-014 -2.38542e-015
lfemur 2.02685 -9.20351 -19.3905
ltibia 27.7479 1.11319e-014 1.66979e-014
lfoot -19.1199 5.76643 6.99882
ltoes -6.04305e-014 -7.79236e-014 3.51849e-014
1457
root -6.39232 3.47607 -0.393135 -90.0196 75.0025 92.2091
lowerback -16.1529 -4.63388 -0.470626
upperback -3.2102 -6.00531 1.7557
thorax 5.83092 -2.89535 0.870989
lowerneck 9.53055 3.28412 -1.77715
upperneck -5.03056 4.05152 -1.61592
head -3.3109 2.11763 -0.453158
rshoulderjoint 1.81219 -4.57185 -32.6498
rhumerus -15.6154 -43.6794 -49.6046
rradius 21.5423 1.74931e-013 -3.33958e-014
rwrist 2.05085e-013 10.3218 -2.21452e-013
rhand 19.9151 -9.04521 20.7889
lshoulderjoint 2.74937 11.1339 24.9655
lhumerus 9.03663 10.9304 52.601
lradius 29.3575 -7.31528e-014 6.44062e-014
lwrist 9.39442e-014 -10.9427 2.00846e-013
lhand 22.9845 10.2992 -19.0375
rfemur -37.7466 3.05695 12.7717
rtibia 16.4639 -1.19271e-015 1.27222e-014
rfoot 5.90983 15.6651 -5.03633
rtoes -1.36366e-013 3.60049e-014 -3.97569e-015
lfemur 0.889156 -8.90749 -19.0348
ltibia 31.0809 -1.51076e-014 -1.35174e-014
lfoot -17.4565 6.79676 6.44956
ltoes -5.725e-014 7.41467e-014 -8.34896e-015
1458
root -6.34021 3.48174 -0.39163 -90.8742 75.2829 92.7756
lowerback -15.7982 -4.63889 -0.0799508
upperback -3.27248 -6.08308 1.8949
thorax 5.54968 -2.93064 0.814591
lowerneck 9.35329 3.31415 -1.83656
upperneck -4.79997 4.0832 -1.77242
head -3.19445 2.13919 -0.488094
rshoulderjoint 1.77816 -4.44279 -32.8392
rhumerus -15.3546 -43.4791 -49.8345
rradius 21.5727 4.13472e-013 1.75726e-013
rwrist 8.67211e-013 10.2086 -1.27653e-013
rhand 19.4911 -9.17578 20.9658
lshoulderjoint 2.75058 11.2243 24.8646
lhumerus 8.46279 11.3789 52.7754
lradius 28.9176 -1.7334e-013 7.15625e-014
lwrist 4.9841e-013 -10.662 3.81899e-013
lhand 22.9699 10.0944 -18.6606
rfemur -37.0659 2.58825 13.3611
rtibia 17.4227 3.57812e-015 -1.66979e-014
rfoot 5.66149 16.0164 -4.73477
rtoes 2.88238e-014 -1.82584e-013 4.13472e-014
lfemur -0.276398 -8.55076 -18.569
ltibia 34.8443 1.90833e-014 2.78299e-014
lfoot -15.2961 7.79297 5.87314
ltoes -2.54444e-014 -1.53462e-013 5.84427e-014
1459
root -6.28825 3.48759 -0.390868 -90.8914 75.8105 92.4677
lowerback -15.2317 -4.53958 0.396099
upperback -3.21762 -6.0389 2.01824
thorax 5.26462 -2.90938 0.730237
lowerneck 9.12484 3.33545 -2.00616
upperneck -4.62934 4.09874 -1.81494
head -3.09463 2.15005 -0.465642
rshoulderjoint 1.74801 -4.32323 -33.04
rhumerus -15.0636 -43.0968 -50.0967
rradius 21.612 1.27222e-014 -3.06128e-014
rwrist -1.62765e-013 10.1444 -4.20039e-014
rhand 19.0736 -9.08194 21.23
lshoulderjoint 2.75529 11.3328 24.7612
lhumerus 7.99617 11.8326 53.036
lradius 28.3992 2.06736e-014 3.97569e-015
lwrist -3.91228e-013 -10.3624 -8.56822e-014
lhand 22.9312 9.77833 -18.3772
rfemur -36.0453 2.31716 13.9522
rtibia 18.2436 4.37326e-015 -8.74653e-015
rfoot 4.93134 16.5345 -4.65747
rtoes -3.26007e-014 -1.90336e-014 3.18055e-015
lfemur -1.36492 -8.02058 -18.1453
ltibia 38.8844 1.59028e-015 1.19271e-014
lfoot -12.8799 8.77362 5.42369
ltoes -9.22361e-014 -3.4191e-014 4.96962e-014
1460
root -6.23924 3.49221 -0.389641 -91.5018 76.2517 92.7334
lowerback -14.6597 -4.46686 0.868068
upperback -3.17753 -6.01757 2.08494
thorax 4.95499 -2.89963 0.585277
lowerneck 9.05487 3.32575 -2.04298
upperneck -4.63988 4.08513 -1.78666
head -3.08637 2.14271 -0.447992
rshoulderjoint 1.66087 -4.10427 -33.0542
rhumerus -14.5524 -42.6763 -50.4437
rradius 21.6151 1.97194e-013 1.2921e-013
rwrist 2.37045e-013 10.0638 5.97597e-014
rhand 18.5941 -8.67707 21.6289
lshoulderjoint 2.75176 11.3214 24.7574
lhumerus 7.62355 12.2442 53.2127
lradius 27.7947 -6.83819e-014 2.78299e-014
lwrist -1.93927e-014 -10.2477 1.21204e-013
lhand 22.7762 9.72194 -18.156
rfemur -35.0355 1.37705 14.8339
rtibia 18.8826 8.94531e-016 1.59028e-015
rfoot 3.88842 17.2871 -4.12826
rtoes -3.57812e-014 1.42131e-014 2.8625e-014
lfemur -2.73761 -7.84179 -17.6973
ltibia 43.1368 1.27222e-014 7.95139e-016
lfoot -10.1597 9.35457 5.10995
ltoes 1.39944e-013 -1.94809e-014 3.18055e-015
1461
root -6.19172 3.49599 -0.388451 -92.246 76.7097 93.0205
lowerback -14.0482 -4.33975 1.47057
upperback -3.10918 -5.93466 2.10682
thorax 4.63474 -2.85918 0.334442
lowerneck 9.08378 3.26607 -1.92347
upperneck -4.77615 4.01927 -1.73294
head -3.13731 2.10655 -0.450353
rshoulderjoint 1.58145 -3.90485 -33.0683
rhumerus -13.9118 -40.9336 -51.1118
rradius 21.5354 -9.16e-013 -4.49253e-014
rwrist -3.65521e-013 10.1504 6.63996e-013
rhand 17.7749 -9.34784 22.4132
lshoulderjoint 2.76658 11.2391 24.9249
lhumerus 7.36062 12.4733 53.3892
lradius 27.086 3.88028e-013 -1.10524e-013
lwrist 7.07448e-013 -10.0737 -4.19946e-013
lhand 22.6001 9.74723 -17.9709
rfemur -33.8932 0.825952 15.5888
rtibia 19.3156 -6.93883e-015 1.90833e-014
rfoot 2.54073 17.7238 -4.06939
rtoes -1.63003e-014 1.81913e-013 -1.04163e-013
lfemur -4.26532 -7.69346 -17.1282
ltibia 47.4551 -2.94201e-014 -2.46493e-014
lfoot -7.65502 9.56422 4.93248
ltoes -5.08889e-014 1.31198e-013 -6.08281e-014
1462
root -6.1449 3.4996 -0.386093 -92.9469 77.1598 93.231
lowerback -13.483 -4.2003 2.0145
upperback -3.01076 -5.82254 2.14813
thorax 4.38016 -2.80494 0.13522
lowerneck 9.19728 3.18336 -1.76743
upperneck -5.00525 3.9216 -1.70904
head -3.23541 2.05604 -0.470172
rshoulderjoint 1.51035 -3.72482 -33.0904
rhumerus -13.3178 -39.9259 -51.6447
rradius 21.46 4.48458e-013 -3.29983e-014
rwrist 7.69771e-013 9.91919 -5.11768e-013
rhand 17.6314 -8.77962 22.8704
lshoulderjoint 2.79122 11.196 25.0954
lhumerus 7.22354 13.0174 53.7136
lradius 26.3115 -2.08326e-013 1.11319e-013
lwrist 1.07126e-012 -9.70079 5.66285e-013
lhand 22.6486 9.24127 -17.598
rfemur -32.6512 0.686329 16.1987
rtibia 19.5201 1.05729e-014 -1.82882e-014
rfoot 1.12872 17.9964 -4.37111
rtoes 2.5842e-014 -1.17184e-013 1.98785e-014
lfemur -5.93176 -7.41898 -16.488
ltibia 51.6595 1.19271e-014 2.46493e-014
lfoot -5.13303 8.97947 4.82229
ltoes -1.33583e-013 -9.85972e-014 6.32135e-014
